<svg xmlns="http://www.w3.org/2000/svg" xmlns:xlink="http://www.w3.org/1999/xlink" width="300" zoomAndPan="magnify" viewBox="0 0 224.87999 225" height="300" preserveAspectRatio="xMidYMid meet" version="1.0"><defs><g/></defs><g fill="#ec1b09" fill-opacity="1"><g transform="translate(-6.201772, 191.649934)"><g><path d="M 158.328125 0 L 119.09375 0 L 53.46875 -99.359375 L 53.46875 0 L 14.234375 0 L 14.234375 -161.09375 L 53.46875 -161.09375 L 119.09375 -61.265625 L 119.09375 -161.09375 L 158.328125 -161.09375 Z M 158.328125 0 "/></g></g></g><g fill="#ffffff" fill-opacity="1"><g transform="translate(166.35672, 191.649934)"><g><path d="M 32.578125 1.828125 C 25.703125 1.828125 20.082031 -0.195312 15.71875 -4.25 C 11.351562 -8.300781 9.171875 -13.3125 9.171875 -19.28125 C 9.171875 -25.394531 11.351562 -30.515625 15.71875 -34.640625 C 20.082031 -38.773438 25.703125 -40.84375 32.578125 -40.84375 C 39.316406 -40.84375 44.863281 -38.773438 49.21875 -34.640625 C 53.582031 -30.515625 55.765625 -25.394531 55.765625 -19.28125 C 55.765625 -13.3125 53.582031 -8.300781 49.21875 -4.25 C 44.863281 -0.195312 39.316406 1.828125 32.578125 1.828125 Z M 32.578125 1.828125 "/></g></g></g></svg>